<?xml version="1.0" encoding="utf-8"?>
<!-- Generator: Adobe Illustrator 15.1.0, SVG Export Plug-In . SVG Version: 6.00 Build 0)  -->
<!DOCTYPE svg PUBLIC "-//W3C//DTD SVG 1.1//EN" "http://www.w3.org/Graphics/SVG/1.1/DTD/svg11.dtd">
<svg version="1.1" id="Layer_1" xmlns="http://www.w3.org/2000/svg" xmlns:xlink="http://www.w3.org/1999/xlink" x="0px" y="0px"
	 width="256px" height="256px" viewBox="0 0 256 256" enable-background="new 0 0 256 256" xml:space="preserve">
<path fill="#F69935" d="M32.599,40.916C61.214,8.049,108.845-7.455,151.277,3.473c5.638,1.424,11.25,3.018,16.619,5.281
	c2.493,1.107,5.001,2.178,7.46,3.395c-0.099,3.833,0.952,7.618,2.909,10.916c2.362-0.109,4.56-1.217,5.345-3.553
	c0.916,2.129,1.417,4.685,3.485,6.059c1.605-0.182,3.168-0.608,4.781-0.767c1.86,2.543,4.879,4.284,5.872,7.399
	c2.848,0.949,5.429,2.397,7.678,4.405c1.235-0.049,2.47-0.183,3.702-0.389c0.162,0.158,0.49,0.498,0.648,0.668
	c-0.584,2.239-1.186,4.491-1.895,6.693c-0.954-1.107-1.847-2.251-2.729-3.407c-0.011,1.375-0.024,2.75,0.111,4.125
	c1.15,1.704,2.751,3.03,4.051,4.612c-0.085,1.436-0.688,2.775-1.257,4.077c-1.445-0.487-2.914-1.983-4.454-0.924
	c-0.174,0.888-0.342,1.776-0.527,2.652c-3.585-0.121-6.7,1.619-9.659,3.432c-0.48-3.639-0.279-7.411-1.321-10.952
	c-3.583-1.022-5.371-4.441-7.677-7.034c1.944,0.171,3.876,0.414,5.833,0.524c-0.478-0.937-1.028-1.838-1.638-2.689
	c-1.701-0.17-3.425-0.097-5.112-0.304c-1.761-2.604-2.629-5.817-4.856-8.104c-2.313-1.85-5.001-3.285-7.853-4.101
	c-0.462,0.183-1.396,0.56-1.867,0.754c0.979,2.458,2.017,4.941,1.944,7.642c-1.653-1.922-3.044-4.063-4.844-5.876
	c-2.875,1.191-5.781,1.825-8.634,0.182c-1.334,1.108-2.876,1.874-4.427,2.592c0.438,2.482,1.554,4.794,2.126,7.252
	c-1.772,2.094-3.546,4.199-4.954,6.56c-0.133-1.497-0.28-3.006-0.451-4.503c-5.259,2.446-5.468,9.297-10.479,11.95
	c-0.317-2.324,1.356-5.634-0.132-7.398c-1.003,0.767-1.959,1.606-2.75,2.592c0.416,1.412,0.976,2.762,1.43,4.162
	c-1.21,0.073-2.421,0.159-3.634,0.255c-0.722,1.387,0.174,2.848,0.136,4.284c-1.004,0.974-2.142,1.776-3.203,2.677
	c2.396,1.095,5.118,1.765,7.043,3.662c0.586,1.656,0.793,3.408,1.297,5.087c1.236-0.037,2.46-0.134,3.693-0.292
	c-1.259,1.752-2.653,3.418-3.767,5.268c0.772,0.682,1.541,1.388,2.285,2.105c-2.223-0.742-4.193,0.329-6.185,1.156
	c-1.126-0.304-2.178-0.779-3.278-1.107c-1.222,1.813-2.216,3.76-3.596,5.451c-1.357-1.691-1.907-3.76-2.433-5.804
	c-1.613,0.024-3.216,0.244-4.795,0.548c0.845,1.363,2.324,2.349,2.813,3.906c-1.516,2.093-3.437,3.845-5.295,5.622
	c-0.317-2.179-1.723-3.602-3.521-4.722c0.794-0.755,1.602-1.509,2.409-2.264c-2.237-0.584-4.561-0.535-6.848-0.45
	c1.394-1.253,3.791-1.886,4.06-3.967c-2.531,0.536-4.977,1.424-7.521,1.911c-0.611-1.241-1.173-2.506-1.662-3.796
	c1.981,1.131,4.157,2.25,6.529,1.642c-0.268-1.131-0.794-2.142-1.589-3.018c1.138-1.192,2.311-2.373,3.021-3.881
	c-2.14,0.669-4.244,1.509-6.494,1.704c0.636-2.386,1.701-4.637,2.325-7.034c-1.468-0.827-3.033-1.521-4.354-2.591
	c0.794-1.217,1.602-2.434,2.408-3.651c-0.978,0-2.922,0.012-3.9,0.012c-0.648,0.974-1.309,1.947-1.97,2.921
	c-0.892-0.134-1.76-0.365-2.641-0.511c-0.367,0.791-0.721,1.582-1.064,2.373c-0.427-1.095-0.868-2.191-1.32-3.273
	c-0.649,1.229-1.235,2.482-1.859,3.726c-0.146-1.91,0.086-4.052-1.222-5.646c-1.859-0.328-3.729-0.462-5.589-0.669
	c-0.012-0.353-0.012-1.047-0.024-1.387c3.191-0.462,6.297,0.231,9.097,1.789c2.507,0.049,5.087-0.499,7.337-1.618
	c1.565-1.047,0.771-3.066,1.015-4.6c2.581,2.275,4.891,4.843,7.509,7.094c0.782-0.511,1.26-1.691,2.348-1.57
	c2.653,0.159,4.182-2.421,5.772-4.113c-0.086-1.74-1.468-3.286-2.874-4.233c-2.324,0.049-4.207,1.692-6.359,2.361
	c-1.199-3.456-5.185-2.641-8.034-2.446c-1.896,1.071-3.424,2.677-5.173,3.955c-0.856-3.48,1.479-6.339,2.604-9.43
	c-2.091,0.668-4.109,1.497-6.199,2.153c-0.343-3.334,2.604-5.014,4.817-6.875c-1.21,0.073-2.409,0.268-3.607,0.231
	c-0.367-0.389-1.112-1.168-1.479-1.557c-1.528,2.385-2.214,5.525-4.646,7.192c-2.972-0.853-5.735-2.288-8.609-3.383
	c-0.501,2.373-0.232,4.794,0.392,7.118c-1.479-0.255-3.033-0.365-4.39-1.059c-0.416-1.266,1.027-2.41,1.247-3.638
	c-2.433-1.497-5.123-0.986-7.606,0.012c3.094-3.906,8.719-8.104,6.175-13.763c1.419,0.146,2.837,0.377,4.244,0.719
	c-0.611,2.117-1.516,4.149-2.201,6.254c1.37-0.024,2.739-0.097,4.097-0.329c0.134-2.495,0.098-5.013-0.22-7.496
	c-4.965-1.204-10.774-4.295-15.408-0.608c-2.777,2.421-5.087,6.498-3.645,10.197c0.819-0.146,1.639-0.28,2.458-0.414
	c0.464,1.229,0.868,2.507,1.063,3.82c-0.697,1.388-1.688,2.751-3.118,3.457c-1.981-1.947-4.195-5.963-7.275-3.103
	c-1.468,4.064,5.576,8.518,1.7,11.925c-2.911,3.395-7.729,2.275-11.642,1.996c-1.516,1.387-2.702,3.079-4.121,4.551
	c-3.558-3.395-9.061-6.474-9.428-11.79c1.222-0.122,2.446-0.231,3.68-0.341c0.098-1.193,0.123-2.397,0.063-3.59
	C35.913,40.563,34.25,40.733,32.599,40.916z"/>
<path fill="#E3E3E3" d="M167.896,8.754c3.156-0.486,6.126,0.755,8.926,2.033c12.499,6.048,25.191,12.314,35.22,22.097
	c6.433,4.479,11.053,10.83,16.215,16.599c7.983,9.674,13.671,20.93,18.892,32.246c4.317,11.548,7.239,23.656,8.646,35.885
	c0,14.444,2.312,30.981-7.777,42.918c-28.443,28.5-57.154,56.744-85.584,85.278c-5.455,6.023-13.626,8.738-21.477,9.908
	c-8.339,0.413-16.689,0.329-25.032,0.059c-12.559-1.715-25.056-4.488-36.82-9.295c-12.839-5.954-25.558-12.732-35.841-22.587
	c-6.09-4.052-10.053-10.222-15.004-15.438c-7.937-9.301-13.403-20.3-18.687-31.214c-4.842-11.67-7.531-24.095-9.341-36.541
	c-0.013-10.806-1.076-21.806,1.332-32.453c0.318,0.231,0.967,0.669,1.296,0.901c-2.617,29.91,6.347,60.733,24.861,84.488
	c0.452,1.678,0.562,3.565,1.772,4.951c12.277,16.731,28.663,30.592,47.606,39.278c14.049,5.222,28.578,9.785,43.619,10.791
	c7.753-0.072,15.618,0.608,23.248-1.069c6.564-0.147,11.801-4.625,16.299-8.885c25.741-25.516,51.334-51.167,77.115-76.661
	c5.784-5.768,11.617-12.983,11.216-21.611c0.866-6.29,1.734-12.74,0.29-19.031c-0.93-14.042-4.306-27.927-9.991-40.826
	c-0.514-1.74-1.957-2.884-3.287-4.004c-1.346-3.2-2.667-6.424-4.266-9.515c-5.59-11.061-12.779-21.368-21.562-30.166
	c-0.159-0.171-0.485-0.511-0.646-0.669c-9.722-9.917-21.205-18.119-33.775-24.069C172.897,10.932,170.39,9.861,167.896,8.754z"/>
<path fill="#E48723" d="M178.266,23.064c-1.957-3.297-3.008-7.082-2.909-10.916c12.568,5.951,24.054,14.152,33.772,24.07
	c-1.234,0.207-2.472,0.34-3.702,0.389c-2.249-2.008-4.831-3.456-7.68-4.405c-0.991-3.115-4.012-4.855-5.871-7.399
	c-1.612,0.159-3.18,0.585-4.781,0.767c-2.065-1.375-2.568-3.93-3.484-6.059C182.825,21.848,180.626,22.955,178.266,23.064z"/>
<path fill="#E88924" d="M67.854,23.795c4.634-3.688,10.443-0.597,15.408,0.608c0.317,2.481,0.354,5,0.219,7.495
	c-1.356,0.231-2.727,0.304-4.095,0.329c0.685-2.105,1.589-4.137,2.201-6.255c-1.407-0.341-2.825-0.572-4.245-0.717
	c2.544,5.658-3.08,9.856-6.174,13.762c2.483-0.998,5.173-1.508,7.606-0.012c-0.22,1.229-1.664,2.373-1.248,3.638
	c1.358,0.694,2.91,0.804,4.39,1.059c-0.624-2.324-0.893-4.746-0.392-7.119c2.874,1.095,5.638,2.531,8.609,3.383
	c2.433-1.667,3.118-4.807,4.647-7.191c0.367,0.389,1.113,1.168,1.479,1.557c1.199,0.037,2.397-0.158,3.607-0.231
	c-2.213,1.862-5.16,3.542-4.817,6.875c2.091-0.657,4.109-1.484,6.199-2.154c-1.125,3.091-3.46,5.951-2.604,9.431
	c1.748-1.277,3.277-2.883,5.173-3.955c2.85-0.195,6.835-1.01,8.034,2.446c2.153-0.669,4.035-2.312,6.36-2.361
	c1.406,0.949,2.788,2.494,2.873,4.233c-1.59,1.691-3.118,4.271-5.772,4.113c-1.088-0.122-1.566,1.059-2.347,1.57
	c-2.617-2.251-4.929-4.819-7.509-7.094c-0.245,1.533,0.55,3.553-1.015,4.6c-2.25,1.12-4.83,1.667-7.337,1.618
	c-2.8-1.557-5.907-2.251-9.098-1.789c0.013,0.341,0.013,1.035,0.024,1.388c0,0.572,0,1.728,0,2.312
	c-2.397-0.073-4.757-0.486-7.141-0.669c0.354,0.583,1.063,1.74,1.417,2.313c-2.592,1.874-5.527,3.236-8.425,4.55
	c-3.179-2.081-8.963-0.584-8.78,3.712c-0.404-0.025-1.223-0.085-1.626-0.11c-0.991-1.277-1.919-2.592-2.984-3.785
	c-1.015,0.402-2.005,0.889-2.995,1.339c0.549-2.021,1.21-4.004,1.748-6.024c-2.824,3.322-6.921,5.767-11.458,4.709
	c-5.013-0.025-7.105-5.282-11.434-6.791c-0.244,1.436-1.541,3.298-0.097,4.502c1.589,0.938,3.657,1.12,4.879,2.604
	c-3.511,0.888-7.082-0.389-10.59-0.693c-0.733-3.358,1.859-5.585,3.962-7.751c-1.235-3.164-3.522-6.389-7.411-5.573
	c1.578-2.446,3.595-4.563,5.502-6.753c1.65-0.183,3.314-0.354,4.99-0.414c0.061,1.193,0.036,2.397-0.062,3.59
	c-1.234,0.109-2.458,0.219-3.681,0.341c0.368,5.317,5.87,8.396,9.429,11.791c1.418-1.473,2.604-3.164,4.12-4.551
	c3.913,0.279,8.731,1.399,11.642-1.996c3.876-3.408-3.167-7.862-1.7-11.925c3.082-2.86,5.295,1.156,7.276,3.103
	c1.43-0.706,2.421-2.069,3.117-3.457c-0.194-1.314-0.598-2.592-1.063-3.821c-0.819,0.135-1.639,0.269-2.457,0.415
	C62.767,30.292,65.079,26.216,67.854,23.795z"/>
<path fill="#EC8D26" d="M168.923,26.24c0.477-0.194,1.407-0.572,1.87-0.754c2.851,0.816,5.539,2.251,7.852,4.101
	c2.226,2.288,3.094,5.5,4.854,8.104c1.69,0.207,3.411,0.134,5.114,0.304c0.61,0.852,1.162,1.752,1.64,2.689
	c-1.958-0.11-3.891-0.353-5.836-0.524c2.311,2.592,4.099,6.011,7.679,7.034c1.041,3.542,0.843,7.313,1.321,10.952
	c0,1.046-0.062,2.081-0.173,3.127c-2.481,2.58-5.549,4.904-5.675,8.822c-1.59-0.913-3.13-1.898-4.694-2.835
	c-0.319,1.205-0.516,2.434-0.833,3.626c-2.544,1.022-5.488-0.146-7.901,1.448c-3.536-0.986-4.474-4.757-5.625-7.763
	c0.418-0.34,1.258-0.998,1.674-1.338c-1.344-2.567-4.412-3.396-6.198-5.452c2.803-1.764,0.403-4.794-2.188-4.016
	c-0.687,3.675-3.779,7.094-7.802,6.559c-0.172-1.801-0.159-3.627,0.172-5.403c1.66-0.023,3.313,0.11,4.978,0.134
	c0.292-1.29,0.534-2.58,0.743-3.894c-0.979,0.779-1.956,1.558-2.935,2.324c-0.561-1.095-1.026-2.239-1.541-3.359
	c-1.088,3.566-4.853,4.88-7.397,7.204c-0.55,1.399,0.747,2.726,1.148,4.04c0.601-1.205,1.198-2.41,1.809-3.602
	c0.322,1.241,0.563,2.494,0.723,3.772c-0.355,0.791-0.855,1.484-1.492,2.081c-1.224-0.329-2.398-0.803-3.631-1.107
	c-1.017,1.083-1.861,2.324-2.727,3.541l-0.771,1.01c-1.234,0.158-2.458,0.255-3.694,0.292c-0.5-1.679-0.709-3.432-1.299-5.087
	c-1.919-1.897-4.645-2.567-7.041-3.662c1.063-0.901,2.199-1.704,3.203-2.677c0.036-1.436-0.857-2.896-0.136-4.284
	c1.212-0.097,2.422-0.182,3.633-0.255c-0.452-1.399-1.016-2.75-1.431-4.162c0.794-0.986,1.749-1.825,2.752-2.592
	c1.49,1.764-0.182,5.074,0.133,7.398c5.013-2.653,5.222-9.506,10.479-11.95c0.173,1.497,0.317,3.006,0.453,4.503
	c1.403-2.361,3.18-4.466,4.952-6.56c-0.576-2.458-1.688-4.77-2.127-7.252c1.553-0.718,3.092-1.484,4.427-2.592
	c2.849,1.643,5.761,1.01,8.633-0.182c1.8,1.813,3.19,3.955,4.845,5.876C170.94,31.181,169.901,28.698,168.923,26.24z"/>
<path fill="#ED8B2F" d="M207.883,43.58c0.709-2.202,1.309-4.454,1.895-6.693c8.781,8.798,15.972,19.105,21.56,30.167
	c-2.643,2.02-6.48,3.637-6.188,7.58c-4.404-0.499-7.924-3.151-11.273-5.78c-0.955,2.081-1.628,4.368-3.317,6.011
	c-0.341-0.754-1.015-2.263-1.347-3.018c-1.588,2.689-2.653,5.829-5.133,7.885c-2.581-1.704-5.379-1.667-7.69,0.511
	c-0.649-0.158-1.961-0.487-2.607-0.657c0.306-4.405-2.826-7.265-6.21-9.491c0.123-3.918,3.188-6.242,5.672-8.822
	c0.111-1.046,0.173-2.081,0.173-3.127c2.96-1.813,6.077-3.553,9.661-3.432c0.182-0.875,0.354-1.764,0.525-2.652
	c1.541-1.059,3.01,0.438,4.452,0.924c0.574-1.302,1.172-2.641,1.26-4.077c-1.299-1.582-2.898-2.908-4.05-4.612
	c-0.135-1.375-0.124-2.75-0.11-4.125C206.036,41.329,206.929,42.473,207.883,43.58z"/>
<path fill="#F59834" d="M27.097,47.669c3.888-0.815,6.175,2.409,7.411,5.573c-2.104,2.167-4.696,4.393-3.962,7.752
	c3.509,0.304,7.08,1.581,10.59,0.693c-1.223-1.484-3.291-1.667-4.879-2.604c-1.444-1.205-0.147-3.066,0.097-4.503
	c4.329,1.509,6.421,6.766,11.434,6.791c4.537,1.059,8.633-1.387,11.458-4.709c-0.537,2.021-1.198,4.004-1.748,6.024
	c0.99-0.451,1.98-0.938,2.995-1.339c1.065,1.192,1.994,2.507,2.984,3.785c-3.852,0.024-7.851-1.594-11.593-0.219
	c-1.883,4.429,3.278,6.984,5.356,10.075c-4.157,0.304-7.852-1.947-11.018-4.356c1.736-2.068,1.565-4.599,0.085-6.766
	c-3.106,0.901-6.334,1.01-9.501,1.57c0.489,1.29,1.113,2.518,1.639,3.784c-1.737-0.621-3.412-1.387-5.173-1.935
	c-0.807,5.122-0.319,10.343-1.248,15.454c-1.136-4.771-0.318-9.893-2.262-14.481c-1.871-1.106-1.981,1.399-2.776,2.471
	c-4.122-1.181-7.777-3.529-10.199-7.094C19.796,58.061,23.062,52.573,27.097,47.669z"/>
<path fill="#E4770A" d="M155.422,50.127c0.514,1.12,0.98,2.264,1.541,3.359c0.98-0.767,1.959-1.545,2.935-2.324
	c-0.209,1.314-0.451,2.604-0.743,3.894c-1.664-0.024-3.316-0.158-4.977-0.134c-0.331,1.776-0.342,3.602-0.173,5.403
	c4.023,0.535,7.115-2.884,7.802-6.559c2.593-0.779,4.991,2.251,2.188,4.016c1.787,2.056,4.857,2.884,6.199,5.452
	c-0.416,0.341-1.256,0.998-1.674,1.338c1.148,3.006,2.09,6.777,5.626,7.763c3.3,2.812,3.058,7.983,1.996,11.84
	c0.56,1.424,1.795,2.482,2.614,3.772c-0.84,0.646-1.768,1.18-2.639,1.776c0.083,1.448,0.428,2.86,0.686,4.296
	c-1.922-0.243-3.656-1.071-5.405-1.813c1.442,2.422,0.895,4.782-0.882,6.851c0.771,0.73,1.541,1.473,2.322,2.203
	c-1.3,2.057-3.348,3.444-5.037,5.16c1.1,2.008,2.774,3.727,3.522,5.914l-0.646,1.181c-2.238-1.546-4.256-3.384-6.433-5.014
	c-0.868,0.377-1.688,0.827-2.521,1.241c-1.675-0.414-2.777,0.998-4.011,1.801c-0.954-1.399-1.883-2.824-2.96-4.137
	c-1.443,0.511-2.8,1.18-4.166,1.837c-0.808-0.049-2.399-0.122-3.206-0.17c5.49-1.363,7.52-7.313,12.339-9.65
	c0.856,1.168,1.639,2.397,2.458,3.589c-0.122-3.346-1.126-6.631-1.028-9.978c0.649-2.458,0.393-4.964-0.243-7.387
	c5.15-6.182,5.734-15.162,3.375-22.609c-3.877-0.023-3.422,6.34-6.812,7.205c-1.846-2.495-2.47-5.622-3.849-8.36
	c-2.887,2.726-3.535,6.912-4.502,10.586c-1.466-0.048-2.908-0.109-4.363-0.194c-0.113-0.34-0.332-1.034-0.441-1.387
	c0.841-0.924,1.692-1.837,2.558-2.738c-0.963-0.754-2.006-1.412-3.007-2.092c0.866-1.217,1.708-2.458,2.726-3.541
	c1.233,0.304,2.408,0.779,3.632,1.107c0.637-0.597,1.137-1.29,1.493-2.081c-0.159-1.278-0.401-2.531-0.723-3.772
	c-0.611,1.191-1.208,2.397-1.811,3.602c-0.4-1.314-1.699-2.641-1.147-4.04C150.569,55.007,154.335,53.693,155.422,50.127z"/>
<path fill="#EF8514" d="M88.031,53.023c1.859,0.207,3.729,0.341,5.589,0.669c1.309,1.594,1.076,3.735,1.222,5.646
	c0.624-1.242,1.211-2.495,1.859-3.726c0.452,1.083,0.893,2.178,1.32,3.273c0.343-0.791,0.698-1.582,1.065-2.373
	c0.879,0.146,1.748,0.377,2.641,0.511c0.66-0.973,1.32-1.946,1.968-2.92c0.979,0,2.923-0.012,3.901-0.012
	c-0.807,1.217-1.614,2.434-2.409,3.651c1.321,1.07,2.886,1.764,4.354,2.591c-0.624,2.397-1.688,4.648-2.324,7.034
	c2.25-0.194,4.354-1.034,6.494-1.704c-0.709,1.51-1.883,2.689-3.021,3.882c0.796,0.876,1.321,1.886,1.589,3.017
	c-2.371,0.608-4.548-0.511-6.529-1.642c0.49,1.29,1.052,2.555,1.663,3.796c2.544-0.486,4.99-1.375,7.521-1.91
	c-0.27,2.081-2.667,2.714-4.061,3.967c2.287-0.085,4.611-0.134,6.848,0.45c-0.806,0.755-1.614,1.509-2.409,2.264
	c1.797,1.12,3.203,2.543,3.521,4.722c1.859-1.776,3.778-3.529,5.295-5.622c-0.489-1.558-1.968-2.543-2.812-3.906
	c1.577-0.304,3.181-0.523,4.794-0.548c0.526,2.044,1.076,4.113,2.434,5.805c1.381-1.692,2.372-3.638,3.594-5.452
	c1.1,0.328,2.153,0.804,3.279,1.108c1.99-0.828,3.961-1.899,6.186-1.156c-0.746-0.718-1.514-1.424-2.286-2.105
	c1.113-1.85,2.509-3.517,3.767-5.269l0.771-1.009c1.003,0.68,2.043,1.338,3.007,2.092c-0.867,0.9-1.712,1.813-2.556,2.737
	c0.109,0.353,0.33,1.046,0.44,1.387c0.318,0.621,0.943,1.875,1.248,2.495c-1.638,1.996-2.727,4.356-4.317,6.389
	c-2.407-1.217-4.619-3.845-7.604-2.58c-2.447,0.024-2.901,2.604-3.609,4.418c2.116,1.292,5.86,1.18,6.238,4.222
	c-3.474-0.584-6.751-2.325-10.358-1.898c-3.63-0.158-6.882,1.667-10.368,2.312c-2.397-2.774-5.857-2.068-9.061-2.446
	c-4.047-2.531-3.241-8.214-4.256-12.303c0.807-1.582,1.883-3.005,2.776-4.527c-0.855-1.082-1.895-1.994-2.947-2.871
	c-2.08,2.823-1.945,6.437-2.507,9.747c0.231-2.312,0.342-4.636,0.098-6.949c-0.196-2.749-0.894-5.438-1.577-8.103
	c-2.471,2.434-3.498,5.816-4.746,8.956l-1.027,0.28c-1.675-3.164-2.764-6.571-4.035-9.893c-2.213,2.093-2.775,5.086-3.57,7.873
	c-1.517-0.729-3.119-1.253-4.818-1.326c0.256-1.339,0.611-2.665,0.795-4.016c-2.421,0.025-4.916,0.474-7.216-0.523
	c2.898-1.314,5.833-2.677,8.426-4.551c-0.354-0.572-1.064-1.728-1.418-2.312c2.385,0.182,4.744,0.596,7.141,0.669
	C88.031,54.751,88.031,53.595,88.031,53.023z"/>
<path fill="#F4942D" d="M65.103,65.241c-0.184-4.296,5.601-5.792,8.78-3.711c2.3,0.998,4.794,0.548,7.216,0.523
	c-0.184,1.351-0.538,2.676-0.794,4.016c-1.468-0.706-2.912-1.473-4.465-1.972c-0.452-0.098-1.369-0.292-1.833-0.389
	c-0.722,0.632-1.419,1.277-2.116,1.922C69.616,65.691,67.365,65.313,65.103,65.241z"/>
<path fill="#FADC51" d="M85.121,67.394c0.794-2.786,1.357-5.78,3.57-7.873c1.272,3.322,2.36,6.729,4.035,9.893
	c-0.525,0.134-1.564,0.39-2.079,0.523C89.217,68.197,87.518,66.871,85.121,67.394z"/>
<path fill="#FDE066" d="M93.754,69.135c1.248-3.14,2.275-6.522,4.745-8.956c0.685,2.665,1.381,5.354,1.577,8.104
	c-1.602,0.791-3.204,1.569-4.854,2.251C94.854,70.181,94.121,69.475,93.754,69.135z"/>
<path fill="#E38622" d="M36.806,65.436c3.167-0.56,6.396-0.669,9.501-1.57c1.48,2.167,1.651,4.697-0.085,6.766
	c3.167,2.409,6.861,4.661,11.018,4.356c-2.079-3.091-7.239-5.646-5.356-10.075c3.742-1.375,7.741,0.243,11.593,0.219
	c0.403,0.024,1.222,0.085,1.626,0.109c2.263,0.073,4.513,0.45,6.787,0.389c0.697-0.645,1.395-1.29,2.116-1.922
	c0.464,0.097,1.381,0.292,1.833,0.389c-1.895,2.507-4.011,4.94-5.013,7.97c-0.403,2.093-3.46,2.178-3.803,4.233
	c1.039,2.628,3.889,4.953,2.312,8.007c-1.26-0.097-2.52-0.219-3.778-0.377c3.521,1.521,3.412,5.816,0.831,8.153
	c0.66,1.229,1.492,2.361,2.164,3.59c-1.504,1.898-3.411,3.529-4.316,5.829c1.223-0.365,2.433-0.779,3.668-1.071
	c1.223,0.499,2.336,1.229,3.448,1.959c-0.696,0.328-2.091,1.01-2.776,1.35c-0.672,2.215,1.443,3.663,2.605,5.209
	c-2.188,0.414-4.207,1.229-5.246,3.334c-0.538-1.229-0.624-2.835-2.079-3.347c0.098,4.028,0.037,8.189-3.424,10.951
	c1.773-0.668,3.534-1.423,5.368-1.959c2.251,1.545,2.63,4.235,2.728,6.742c1.051-0.352,2.079-0.766,3.118-1.168
	c2.091-0.109,5.025-0.947,6.028,1.57c2.373,2.545,1.358,6.023,2.055,9.005c1.626,0.594,3.327,0.948,4.989,1.473
	c-0.135,0.729-0.685,1.288-0.93,1.983c-1.504-0.707-2.971-1.496-4.573-1.95c1.198,2.083,2.531,4.102,4.036,5.986
	c0.904-1.568,2.176-0.511,3.412-0.132c0.624-1.325,0.746-2.98,1.944-3.967c1.456,0.803,2.824,1.751,4.292,2.53
	c1.589-1.093,3.082-2.507,5.136-2.614c-0.062,2.64,0.012,5.294,0.477,7.896c-0.171,2.359-1.296,4.71-0.524,7.095
	c2.151,0.193,4.328-0.049,6.48,0.034c1.724,2.69-0.686,5.491-2.091,7.703c-1.259-1.071-2.433-2.252-3.644-3.382
	c0.538,3.041,0.355,6.083-0.244,9.092c0.257,0.386,0.782,1.154,1.039,1.546c-0.33,0.483-0.978,1.458-1.296,1.947
	c0.465,3.065,2.189,5.938,2.018,9.09c-2.556,4.537-5.54,8.895-7.02,13.945c-8.474,3.018-13.415,11.475-21.044,15.979
	c-5.796,3.09-9.33,8.967-15.078,12.107c-11.237-7.24-20.837-16.646-29.384-26.808C9.207,169.877,0.243,139.055,2.859,109.145
	c1.26-12.436,4.549-24.69,9.27-36.311l0.464,0.815c1.932,4.904,0.954,10.441,2.739,15.466c-1.248-0.036-2.507-0.085-3.742-0.133
	c2.36,2.531,5.833,3.711,8.499,5.926c1.798,1.813,5.197,0.62,6.444,3.029c-0.672,1.047-1.345,2.105-2.03,3.152
	c2.824,0.255,5.38-1.145,7.875-2.251c-2.201-3.176-5.905-4.868-8.144-7.996c-3.521-4.502-6.909-9.382-7.961-15.101
	c0.685-0.073,2.066-0.244,2.764-0.329c-1.235-2.713-2.678-5.317-4.023-7.982l-0.171-0.426c0.489-0.839,1.455-2.519,1.944-3.371
	c2.422,3.565,6.077,5.914,10.199,7.094c0.795-1.071,0.905-3.577,2.776-2.471c1.944,4.588,1.125,9.711,2.262,14.481
	c0.929-5.111,0.441-10.332,1.248-15.454c1.761,0.548,3.436,1.313,5.173,1.935C37.919,67.954,37.295,66.725,36.806,65.436z"/>
<path fill="#F8DB1B" d="M149.113,72.469c0.967-3.675,1.613-7.861,4.502-10.587c1.382,2.738,2.005,5.866,3.849,8.36
	c3.39-0.864,2.935-7.228,6.812-7.204c2.359,7.446,1.773,16.428-3.375,22.608c-2.201,0.426-4.707,1.509-6.787,0.085
	C149.65,83.104,149.211,77.129,149.113,72.469z"/>
<path fill="#E37F12" d="M75.839,64.097c1.553,0.499,2.997,1.266,4.465,1.972c0.012,2.093-0.478,4.063-1.957,5.597
	c0.452,1.181,1.063,2.3,1.552,3.468c-0.746,0.742-1.542,1.423-2.385,2.032c1.516,1.996,3.791,3.663,4.366,6.218
	c-0.673,1.144-1.504,2.19-2.202,3.31c1.015,1.691,2.74,2.774,4.097,4.173c-0.979,2.081-3.18,2.993-4.916,4.308
	c1.161,3.298-0.172,6.583-0.697,9.845c1.443,0.353,2.897,0.682,4.365,0.986c-3.398,1.789-7.214,4.198-7.41,8.457
	c0.207,0.499,0.623,1.497,0.832,1.996c-0.65,0.075-1.957,0.231-2.618,0.304c1.395,1.168,2.862,2.287,3.803,3.881
	c-1.749-0.548-3.437-1.229-5.135-1.91c2.91,1.399,1.369,3.176-0.355,4.77c-1.039,0.402-2.067,0.815-3.118,1.169
	c-0.098-2.508-0.476-5.197-2.728-6.743c-1.834,0.535-3.595,1.29-5.368,1.958c3.461-2.762,3.522-6.923,3.424-10.951
	c1.455,0.511,1.541,2.118,2.079,3.347c1.039-2.105,3.058-2.92,5.246-3.334c-1.162-1.545-3.277-2.994-2.605-5.208
	c0.685-0.341,2.08-1.022,2.776-1.351c-1.112-0.73-2.225-1.46-3.448-1.959c-1.235,0.292-2.445,0.706-3.668,1.07
	c0.905-2.299,2.812-3.93,4.316-5.828c-0.672-1.229-1.504-2.361-2.164-3.59c2.581-2.336,2.69-6.631-0.831-8.153
	c1.259,0.158,2.519,0.279,3.778,0.377c1.578-3.055-1.272-5.378-2.312-8.007c0.343-2.056,3.4-2.142,3.803-4.233
	C71.828,69.037,73.944,66.604,75.839,64.097z"/>
<path fill="#DF6F00" d="M80.304,66.068c1.698,0.073,3.3,0.596,4.817,1.326c-0.245,4.758-1.027,10.173,2.055,14.249
	c1.516,1.838,3.925,2.203,6.187,2.203c2.091-0.292,3.632-1.898,4.684-3.614c0.808-1.583,1.737-3.2,1.933-5.001
	c0.563-3.31,0.428-6.924,2.507-9.747c1.052,0.876,2.091,1.789,2.947,2.872c-0.893,1.521-1.969,2.944-2.776,4.526
	c1.015,4.089,0.208,9.771,4.256,12.303c3.204,0.377,6.664-0.329,9.061,2.446c3.486-0.645,6.738-2.471,10.37-2.312
	c3.605-0.426,6.885,1.313,10.357,1.898c-0.378-3.042-4.12-2.932-6.238-4.222c0.708-1.814,1.163-4.394,3.61-4.417
	c2.981-1.266,5.198,1.362,7.604,2.58c1.591-2.033,2.679-4.393,4.318-6.389c2.993,3.748,1.416,8.482,1.847,12.801
	c-1.689,0.767-3.473,1.302-5.196,1.983c2.283,0.718,4.695,0.269,7.042,0.232c-0.549,2.567-2.763,3.347-5.123,3.492
	c-0.402,1.57-0.525,3.188-0.745,4.794c-0.624,0.414-1.869,1.242-2.493,1.655c0.133-3.456-2.753-6.363-5.958-7.119
	c-2.188,0.499-4.304,1.314-6.454,1.959c0.084-2.154,0.709-4.344,0.245-6.486c-3.17-0.596-1.238,3.517-2.274,5.221
	c-1.933,0.645-3.986,0.596-5.894-0.073c-0.318-1.729-0.6-3.468-0.819-5.208c-0.845,1.18-1.614,2.409-2.422,3.602
	c-0.648,0.158-1.296,0.305-1.933,0.414c0.013,4.271-4.622,6.072-8.291,5.586c-1.749-0.645-1.968-2.799-2.922-4.174
	c-1.431,0.584-2.789,1.338-4.17,2.02c-1.162-0.122-2.323-0.219-3.485-0.304c0.526-2.824-1.149-5.257-2.066-7.8
	c-0.526-2.47-3.657-1.691-5.43-2.007c-0.098,1.935,0.855,3.674,1.456,5.451c-1.675,2.945-3.815,5.573-5.748,8.348
	c-0.331,2.848,2.581,4.356,4.035,6.388c-1.284,2.361-2.897,4.819-2.176,7.63c-1.87-0.913-3.388-2.361-5.135-3.467
	c1.32,4.66,6.26,6.399,10.32,8.006c-0.905,0.888-1.871,1.691-2.715,2.641c0.048,0.56,0.135,1.679,0.183,2.239
	c-2.617-0.925-5.111-2.153-7.728-3.054c1.553,2.167,3.791,3.663,5.907,5.221c-1.663,0.414-3.314,0.827-4.953,1.253
	c-0.893-0.38-1.786-0.718-2.69-1.037c2.189,3.556,5.369,6.903,9.612,7.789c0.354-0.353,1.039-1.059,1.381-1.411
	c0.319,0,0.954-0.025,1.271-0.025c-0.439,4.77,6.531,4.066,8.561,1.096c0.832,1.568,0.954,4.099,3.008,4.585
	c0.489-1.554,0.954-3.101,1.382-4.656c0.526,2.469,0.685,5.086,1.798,7.395c0.403,0.124,1.223,0.354,1.626,0.477
	c0.856-0.996,1.638-2.045,2.47-3.066c0,3.235,0.085,6.837,2.727,9.173c0.954-0.219,1.896-0.475,2.837-0.765
	c1.676,3.067,3.657,5.986,6.126,8.468c-0.696,0.012-2.09,0.05-2.788,0.062c0.306,1.496,1.369,2.945,1.063,4.514
	c-1.015,2.302-2.715,4.247-3.484,6.658c-0.367,1.825,1.455,3.029,2.115,4.563c-3.351,0.596-7.044,0.828-9.441,3.591l-0.696,0.594
	c-0.673-1.594-1.578-3.067-2.287-4.636c1.027-0.414,2.066-0.83,3.105-1.243c-0.904-1.084-1.773-2.189-2.617-3.312
	c0.746-1.789,1.847-3.408,2.715-5.145c-3.07,1.36-5.197,4.039-6.31,7.14c-0.379,0.014-1.149,0.025-1.529,0.038
	c-0.366-0.899-0.708-1.8-1.027-2.712c-0.77,1.069-1.54,2.142-2.299,3.224c-0.256-0.389-0.781-1.158-1.038-1.546
	c0.599-3.008,0.782-6.051,0.244-9.092c1.211,1.132,2.384,2.312,3.644,3.382c1.406-2.213,3.815-5.013,2.091-7.703
	c-2.152-0.083-4.33,0.159-6.48-0.035c-0.771-2.384,0.354-4.734,0.525-7.094c-0.465-2.606-0.538-5.257-0.477-7.897
	c-2.054,0.111-3.546,1.521-5.136,2.615c-1.467-0.779-2.836-1.727-4.292-2.531c-1.199,0.988-1.321,2.643-1.945,3.968
	c-1.235-0.379-2.507-1.437-3.411,0.132c-1.505-1.885-2.837-3.904-4.036-5.986c1.602,0.452,3.069,1.242,4.574,1.949
	c0.245-0.693,0.795-1.252,0.929-1.982c-1.663-0.524-3.363-0.879-4.989-1.473c-0.698-2.981,0.318-6.463-2.055-9.005
	c-1.003-2.517-3.937-1.68-6.028-1.57c1.724-1.594,3.265-3.371,0.355-4.77c1.699,0.681,3.387,1.362,5.135,1.91
	c-0.94-1.594-2.409-2.713-3.803-3.881c0.662-0.073,1.969-0.23,2.618-0.304c-0.208-0.499-0.625-1.496-0.833-1.996
	c0.196-4.259,4.011-6.668,7.41-8.457c-1.467-0.304-2.922-0.633-4.365-0.986c0.525-3.261,1.858-6.546,0.697-9.844
	c1.736-1.314,3.938-2.227,4.916-4.308c-1.356-1.399-3.082-2.482-4.097-4.173c0.697-1.12,1.529-2.167,2.202-3.31
	c-0.575-2.556-2.851-4.223-4.367-6.218c0.843-0.608,1.639-1.29,2.386-2.032c-0.489-1.169-1.101-2.289-1.553-3.469
	C79.826,70.132,80.315,68.161,80.304,66.068z"/>
<path fill="#F7DA23" d="M85.121,67.394c2.396-0.523,4.096,0.803,5.527,2.543c0.514-0.134,1.553-0.39,2.079-0.523l1.027-0.279
	c0.367,0.34,1.101,1.046,1.468,1.399c1.65-0.682,3.253-1.46,4.854-2.251c0.244,2.312,0.134,4.635-0.098,6.948
	c-0.196,1.801-1.125,3.418-1.933,5.001c-0.22-0.657-0.66-1.959-0.88-2.616c-1.199,0.109-2.287,0.474-3.29,1.107
	c-0.22,1.704-0.391,3.408-0.514,5.123c-2.262,0-4.671-0.365-6.187-2.203C84.094,77.567,84.876,72.152,85.121,67.394z"/>
<path fill="#E58325" d="M182.876,67.26c1.565,0.937,3.104,1.922,4.695,2.835c3.39,2.227,6.518,5.086,6.213,9.491
	c0.647,0.17,1.956,0.499,2.604,0.657c-0.341,1.217-0.563,2.482-1.148,3.602c-1.09,0.231-2.166,0.475-3.24,0.743
	c-0.831,2.226-1.625,4.487-4.105,5.33c-1.139,2.275-1.334,4.928-2.314,7.276c-2.727-1.034-5.281,0.061-7.667,1.412
	c-0.527-0.183-1.592-0.548-2.116-0.73c1.516-1.022,3.072-1.983,4.586-3.018c-1.172-0.39-2.396-0.597-3.583-0.838
	c-0.257-1.437-0.6-2.848-0.688-4.296c0.872-0.596,1.801-1.131,2.642-1.777c-0.819-1.29-2.055-2.348-2.615-3.772
	c1.063-3.857,1.306-9.029-1.995-11.84c2.411-1.594,5.355-0.425,7.9-1.448C182.362,69.694,182.557,68.465,182.876,67.26z"/>
<path fill="#F69935" d="M12.594,73.648c-0.527-2.324,1.283-4.368,2.421-6.217c1.345,2.665,2.789,5.269,4.023,7.982
	c-0.698,0.085-2.079,0.256-2.764,0.329c1.052,5.719,4.44,10.599,7.961,15.101c2.238,3.128,5.943,4.819,8.144,7.996
	c-2.495,1.106-5.051,2.506-7.875,2.251c0.685-1.047,1.358-2.105,2.03-3.152c-1.247-2.409-4.646-1.217-6.444-3.029
	c-2.666-2.215-6.139-3.395-8.499-5.926c1.235,0.048,2.494,0.097,3.742,0.133C13.548,84.089,14.526,78.553,12.594,73.648z"/>
<path fill="#E07B2D" d="M225.149,74.634c-0.293-3.943,3.545-5.56,6.188-7.58c1.604,3.09,2.925,6.315,4.268,9.515
	c0.771,2.921,1.872,5.731,2.751,8.628c-1.895,0.256-3.202-1.059-4.535-2.155c-5.198,5.379-7.618,14.079-15.227,16.647
	c-3.325-2.677-0.23-8.007-3.702-10.429c-0.588,1.437-1.149,2.884-1.775,4.295c-0.646-0.17-1.296-0.34-1.931-0.523
	c-0.417,1.716-0.55,3.493-1.126,5.159c-1.686,2.41-4.646,0.67-6.933,0.742c-4.281,2.057-8.659,5.318-8.304,10.587
	c-2.738-1.035-5.527-0.682-7.947,0.985c-0.893-2.105-1.652-4.283-2.727-6.303c-1.882-0.402-3.814-0.353-5.7-0.707
	c-1.514-1.204-0.523-3.297-0.533-4.891c2.383-1.352,4.938-2.446,7.667-1.412c0.979-2.349,1.175-5.001,2.313-7.277
	c2.479-0.839,3.278-3.104,4.106-5.33c1.078-0.268,2.154-0.511,3.24-0.742c0.588-1.12,0.81-2.385,1.151-3.602
	c2.312-2.178,5.11-2.214,7.69-0.511c2.479-2.056,3.545-5.196,5.133-7.885c0.332,0.754,1.004,2.263,1.347,3.018
	c1.689-1.643,2.361-3.931,3.317-6.011C217.226,71.483,220.745,74.135,225.149,74.634z"/>
<path fill="#FADE4A" d="M89.767,71.251c2.8-0.048,3.718,3.225,5.186,5.062c-0.441,0.231-1.309,0.682-1.749,0.913
	C91.932,75.328,90.232,73.551,89.767,71.251z"/>
<path fill="#DB5F00" d="M144.747,72.273c1.456,0.085,2.897,0.146,4.365,0.195c0.097,4.66,0.537,10.635,5.001,13.263
	c2.08,1.424,4.586,0.341,6.787-0.085c0.636,2.422,0.893,4.929,0.243,7.387c-0.098,3.347,0.907,6.632,1.028,9.978
	c-0.819-1.192-1.6-2.421-2.458-3.589c-4.817,2.336-6.849,8.288-12.34,9.65c-1.66,0.341-3.313,0.73-4.938,1.18
	c-0.223-0.097-0.649-0.292-0.869-0.389c-2.788-1.302-5.614-2.543-8.575-3.456c1.406-1.059,2.851-2.044,4.27-3.079
	c0.479-0.292,1.431-0.888,1.896-1.181c-2.594-1.74-5.809-0.353-8.671-0.572c-1.196-1.643-2.482-3.212-3.643-4.867
	c0.647-0.742,1.345-1.46,2.063-2.142c2.155-0.645,4.268-1.46,6.455-1.959c3.205,0.755,6.091,3.663,5.958,7.119
	c0.084,0.572,0.268,1.716,0.353,2.276c2.569-0.682,5.734-1.217,7.117-3.772c-1.651-0.256-3.313-0.304-4.977-0.159
	c0.222-1.606,0.344-3.225,0.745-4.794c2.362-0.145,4.575-0.925,5.122-3.492c-2.347,0.037-4.758,0.486-7.041-0.232
	c1.724-0.681,3.507-1.217,5.195-1.983c-0.43-4.319,1.146-9.053-1.846-12.801C145.69,74.148,145.065,72.894,144.747,72.273z"/>
<path fill="#FADB4A" d="M93.876,78.723c1.003-0.633,2.091-0.998,3.29-1.107c0.22,0.657,0.66,1.959,0.88,2.616
	c-1.051,1.715-2.592,3.322-4.684,3.614C93.485,82.131,93.657,80.426,93.876,78.723z"/>
<path fill="#B7B7B7" d="M235.604,76.569c1.333,1.12,2.776,2.264,3.289,4.003c5.685,12.899,9.062,26.784,9.991,40.826
	c1.443,6.291,0.575,12.741-0.292,19.031c0.401,8.628-5.431,15.844-11.215,21.611c-25.779,25.494-51.373,51.145-77.113,76.661
	c-4.502,4.26-9.735,8.737-16.301,8.885c-7.63,1.678-15.493,0.997-23.248,1.069c-15.041-1.007-29.569-5.571-43.619-10.79
	c-18.942-8.692-35.329-22.55-47.606-39.281c-1.21-1.388-1.321-3.271-1.772-4.95c8.546,10.163,18.147,19.566,29.384,26.807
	c9.783,6.521,20.605,11.533,31.904,14.879c8.193,2.398,16.619,4.247,25.155,4.818c0.244,0.025,0.721,0.05,0.966,0.075
	c1.528,1.362,3.301,2.629,5.479,2.288c8.193,0.048,16.375,0.085,24.554-0.123c5.196-0.194,8.99-4.176,12.52-7.495
	c26.232-26.198,52.569-52.298,78.826-78.474c4.892-4.771,9.708-11.962,6.053-18.861c0.074-0.609,0.244-1.825,0.33-2.434
	c1.383-8.482,1.139-17.183,0.513-25.737c-1.04-8.177-2.569-16.317-5.05-24.179C237.477,82.3,236.376,79.49,235.604,76.569z"/>
<path fill="#D56E2E" d="M218.594,99.689c7.608-2.567,10.028-11.268,15.227-16.646c1.333,1.095,2.641,2.41,4.535,2.155
	c2.48,7.861,4.011,16.002,5.051,24.179c-2.738,1.862-6.004,0.827-9.037,0.84c-2.077,3.005-2.557,7.094-5.576,9.43
	c-1.725-1.265-3.182-2.896-5.064-3.918c-0.843,0.354-1.662,0.73-2.482,1.12c-4.45,0.56-10.004,3.505-9.809,8.65
	c0,2.703,2.007,5.235,0.794,7.958c-1.453-2.577-2.2-7.045-6.237-5.364c-1.443-1.923-2.947-3.992-5.332-4.807
	c-1.418,1.043-2.628,2.349-4.009,3.443c-1.564-1.998-2.801-4.225-4.305-6.267c-2.766,1.253-3.767,4.515-6.141,6.292
	c-1.075-0.352-2.167-0.683-3.238-1.01c-3.047,1.447-1.8,4.784-1.458,7.364c-1.832-1.072-3.654-2.155-5.573-3.067l-0.992-0.767
	c0.978-1.059,2.064-2,3.091-3.006c-0.793-0.596-1.612-1.134-2.458-1.633c0.382-2.701,0.943-5.376,1.102-8.102
	c3.827-1.181,7.835-2.543,10.187-6.023c2.418-1.667,5.209-2.02,7.946-0.985c-0.355-5.27,4.021-8.53,8.303-10.586
	c2.287-0.074,5.247,1.667,6.934-0.743c0.576-1.667,0.709-3.443,1.127-5.16c0.634,0.183,1.284,0.353,1.93,0.523
	c0.627-1.412,1.188-2.859,1.774-4.296C218.363,91.683,215.269,97.013,218.594,99.689z"/>
<path fill="#F8DC2C" d="M89.45,85.355c1.772,0.316,4.904-0.463,5.43,2.007c0.917,2.543,2.593,4.977,2.066,7.8
	c1.163,0.085,2.324,0.182,3.486,0.304c1.369,1.083,2.812,2.068,4.156,3.2c-0.599,3.505-5.441,0.73-7.324-0.401
	c-0.501-1.046-0.966-2.093-1.394-3.164c-2.189-0.754-3.73-2.396-4.965-4.295C90.305,89.03,89.352,87.29,89.45,85.355z"/>
<path fill="#F6DA12" d="M126.881,93.301c1.04-1.704-0.893-5.817,2.276-5.221c0.462,2.142-0.161,4.332-0.247,6.486
	c-0.721,0.682-1.417,1.4-2.064,2.142c1.16,1.655,2.446,3.225,3.643,4.867c-3.278,4.612-9.085,3.796-13.928,2.969
	c-2.898-2.166-6.75-1.558-10.064-2.58c0.16-0.583,0.502-1.765,0.662-2.348c3.142,0.207,6.309,1.521,9.452,0.875
	c1.235-1.253,2.409-2.556,3.51-3.918c-0.722-1.692-1.701-3.25-2.373-4.953c0.808-1.192,1.578-2.421,2.422-3.602
	c0.219,1.74,0.501,3.48,0.819,5.208C122.895,93.897,124.949,93.946,126.881,93.301z"/>
<path fill="#F8DB1B" d="M152.535,88.044c1.664,0.304,3.34,0.621,5.003,0.949c-1.884,3.358-4.084,8.542-8.743,7.861
	C149.406,93.703,151.36,91.013,152.535,88.044z"/>
<path fill="#D65B00" d="M85.157,99.154c1.933-2.774,4.072-5.403,5.748-8.348c1.235,1.898,2.776,3.541,4.965,4.295
	c0.428,1.071,0.893,2.118,1.394,3.164c1.883,1.132,6.726,3.906,7.324,0.401c-1.344-1.131-2.788-2.117-4.156-3.2
	c1.381-0.682,2.738-1.436,4.169-2.02c0.954,1.375,1.174,3.529,2.922,4.174c3.669,0.486,8.304-1.314,8.292-5.586
	c0.636-0.109,1.284-0.255,1.932-0.414c0.672,1.704,1.651,3.261,2.373,4.953c-1.101,1.362-2.275,2.665-3.51,3.918
	c-3.143,0.646-6.31-0.669-9.452-0.875c-0.159,0.583-0.501,1.764-0.662,2.348c3.315,1.022,7.167,0.414,10.064,2.58
	c-4.121,1.022-8.058,2.556-11.788,4.588c2.543,2.993,6.554-0.098,9.465-0.998c4.317,5.001,12.459,4.964,17.341,0.815
	c-0.025-1.57-0.1-3.14-0.197-4.698c1.92-0.51,3.915-0.693,5.885-0.924c-1.42,1.035-2.862,2.02-4.269,3.079l-0.193,1.278
	c1.799,2.677,5.149,3.273,8.08,3.918c0.173-0.438,0.515-1.302,0.688-1.74c0.22,0.097,0.646,0.292,0.869,0.389l0.61,1.339
	c2.777,0.462,5.489-0.45,7.535-2.349c1.366-0.658,2.725-1.326,4.166-1.837c1.075,1.313,2.006,2.738,2.96,4.137
	c-1.161,1.399-3.375,2.287-3.277,4.405c2.96-1.339,5.355-3.626,7.288-6.207c0.83-0.414,1.653-0.864,2.521-1.241
	c2.174,1.63,4.194,3.468,6.433,5.014c-0.196,0.376-0.601,1.144-0.808,1.521c2.029,0,3.888,0.657,5.479,1.947
	c-2.225,1.205-5.503,0.949-6.396,3.821c-1.799,2.252-0.391,4.868-0.063,7.313c-1.124,1.959-2.641,3.664-4.119,5.367
	c0.207-1.862,0.675-3.7,0.636-5.574c-0.613-0.974-1.298-1.874-2.064-2.713c-1.564,0.769-3.01,1.752-4.462,2.704
	c-1.356,0.683-2.62,1.506-3.767,2.468c0.513,0.208,1.542,0.608,2.055,0.804c1.945-0.291,5.249,1.39,2.656,3.151
	c-0.919-0.561-1.773-1.203-2.702-1.74c-0.554,4.064-5.283,4.648-8.577,5.475c-2.526-0.973-5.121-1.873-7.822-2.275
	c-0.317,0.463-0.953,1.389-1.286,1.85c-1.111-0.133-2.165-0.498-3.277-0.645c-1.81,0.949-4.621,2.179-4.292,4.649
	c0.61,1.75,2.409,2.518,3.791,3.565c0.306,0.255,0.929,0.78,1.234,1.047c2.57-1.157,5.331-1.875,8.146-1.183
	c-0.674,1.326-1.543,2.605-2.703,3.554c-1.417,0.035-2.827-0.11-4.219-0.159c1.355,2.068,2.945,4.004,3.999,6.267
	c0.244,2.081-0.026,4.211,0.439,6.277c0.441,2.983,1.297,6,3.634,8.094c-1.822,0.377-3.645,0.718-5.442,1.19
	c-0.942-0.364-1.884-0.74-2.828-1.12c0.821-0.108,2.447-0.303,3.267-0.412c0.416-2.641,0.05-5.719-2.883-6.644
	c-0.283-0.271-0.87-0.817-1.162-1.095c-1.052-2.849-3.4-4.844-6.005-6.256c-1.371,0.511-2.605,1.299-3.864,2.006
	c0.917,1.022,1.883,2.031,2.875,2.994c-0.743,1.011-1.453,2.032-2.125,3.09c1.394,1.667,4.539,2.069,4.524,4.625
	c-1.334,0.997-2.835,1.752-4.244,2.655c0.367,1.982,1.977,4.099,0.332,5.949c-2.301,0.596-4.684,0.525-6.996-0.047
	c-0.563-0.609-1.15-1.206-1.761-1.764c-0.379,0.449-1.15,1.361-1.529,1.811c-2.666-0.767-5.222-1.851-7.863-2.663
	c2.397-2.763,6.09-2.991,9.441-3.588c-0.661-1.533-2.482-2.738-2.116-4.564c0.771-2.41,2.47-4.355,3.485-6.657
	c0.306-1.567-0.758-3.017-1.064-4.515c0.697-0.012,2.092-0.049,2.788-0.062c2.238-0.061,4.83,0.769,6.649-0.96
	c-0.535-2.836-0.891-5.697-1.098-8.567c-3.704,2.067-7.802,0.671-11.678,1.06c-0.942,0.289-1.883,0.546-2.837,0.766
	c-2.642-2.336-2.728-5.938-2.728-9.174c-0.832,1.023-1.613,2.067-2.47,3.065c-0.404-0.121-1.223-0.353-1.627-0.476
	c-1.112-2.311-1.271-4.926-1.797-7.396c-0.428,1.557-0.893,3.103-1.382,4.657c-2.055-0.484-2.177-3.015-3.007-4.586
	c-0.184-0.451-0.538-1.376-0.709-1.838c-2.604,0.426-5.222,0.717-7.852,0.739c-0.318,0-0.954,0.025-1.271,0.025
	c-3.082-1.251-5.931-3.03-8.303-5.344c1.638-0.427,3.289-0.838,4.952-1.251c0.991,0.194,2.984,0.559,3.975,0.74
	c-0.539-0.731-1.614-2.179-2.152-2.909c-0.049-0.56-0.135-1.679-0.183-2.239c0.844-0.949,1.81-1.752,2.714-2.64
	c0.11-0.536,0.342-1.606,0.465-2.142c-1.872-0.84-3.803-1.521-5.65-2.397c-0.721-2.811,0.894-5.269,2.177-7.63
	c1.357,1.192,2.775,2.446,4.708,2.495C93.24,103.706,87.873,102.245,85.157,99.154z"/>
<path fill="#DC761E" d="M171.393,92.206c1.749,0.742,3.484,1.57,5.405,1.813c1.187,0.243,2.41,0.45,3.583,0.837
	c-1.516,1.034-3.071,1.995-4.587,3.018c0.527,0.183,1.592,0.547,2.118,0.73c0.012,1.593-0.982,3.687,0.533,4.891
	c1.885,0.353,3.817,0.304,5.7,0.706c1.076,2.021,1.833,4.199,2.726,6.304c-2.35,3.48-6.357,4.843-10.188,6.023
	c-0.34,0.121-1.015,0.34-1.346,0.45c-1.59-1.289-3.447-1.946-5.478-1.946c0.209-0.378,0.611-1.145,0.808-1.521l0.646-1.18
	c-0.745-2.19-2.419-3.906-3.521-5.914c1.686-1.716,3.741-3.103,5.038-5.16c-0.784-0.73-1.553-1.472-2.325-2.202
	C172.285,96.988,172.836,94.628,171.393,92.206z"/>
<path fill="#F1C70F" d="M141.325,99.726c0.622-0.413,1.869-1.241,2.493-1.655c1.662-0.146,3.326-0.097,4.977,0.159
	c-1.384,2.556-4.551,3.091-7.117,3.772C141.591,101.442,141.409,100.298,141.325,99.726z"/>
<path fill="#F1C118" d="M85.157,99.154c2.715,3.091,8.083,4.551,8.744,8.883c-1.932-0.048-3.351-1.303-4.708-2.495
	C87.737,103.511,84.827,102.002,85.157,99.154z"/>
<path fill="#F9DC27" d="M130.488,101.576c2.86,0.219,6.077-1.168,8.671,0.572c-0.466,0.292-1.419,0.888-1.896,1.181
	c-1.967,0.231-3.962,0.414-5.883,0.924c0.099,1.558,0.173,3.128,0.197,4.698c-4.88,4.149-13.025,4.186-17.342-0.815
	c-2.911,0.9-6.922,3.991-9.465,0.998c3.729-2.032,7.667-3.566,11.788-4.588C121.403,105.372,127.211,106.188,130.488,101.576z"/>
<path fill="#F3C21B" d="M94.977,106.966c2.752,0.621,5.553,0.998,8.364,1.375c0.159,0.511,0.465,1.545,0.624,2.068
	C101.054,110.301,94.904,111.056,94.977,106.966z"/>
<path fill="#F2C415" d="M132.994,106.407c2.96,0.913,5.784,2.154,8.573,3.456c-0.172,0.438-0.515,1.302-0.686,1.74
	c-2.933-0.645-6.284-1.242-8.081-3.918L132.994,106.407z"/>
<path fill="#F2C40F" d="M142.437,110.252c1.626-0.45,3.278-0.839,4.939-1.18c0.807,0.048,2.398,0.121,3.206,0.17
	c-2.045,1.898-4.76,2.811-7.534,2.349L142.437,110.252z"/>
<path fill="#EDA310" d="M157.709,111.542c1.236-0.804,2.337-2.215,4.012-1.801c-1.934,2.58-4.328,4.868-7.288,6.207
	C154.335,113.829,156.547,112.941,157.709,111.542z"/>
<path fill="#D15F2B" d="M234.369,110.216c3.033-0.013,6.299,1.022,9.037-0.84c0.625,8.554,0.868,17.254-0.512,25.736
	c-0.809-1.558-1.641-3.103-2.594-4.589c-2.799,2.167-4.341,5.562-7.239,7.594c-0.808-1.547-1.628-3.077-2.47-4.589
	c-0.882,2.007-1.493,4.112-2.152,6.193c-0.232-2.966,1.809-5.743,1.257-8.641c-3.231,1.35-5.906,3.881-5.357,7.655
	c-2.458-1.182-4.877,0.448-7.226,1.119c-0.44-1.887-0.88-3.774-1.272-5.67c4.427,3.15,9.186-2.629,10.836-6.354
	c-2.19-3.469-4.051-7.129-5.431-10.987c0.82-0.389,1.64-0.767,2.482-1.119c1.883,1.022,3.338,2.653,5.064,3.918
	C231.814,117.309,232.292,113.221,234.369,110.216z"/>
<path fill="#F0C013" d="M81.88,109.704c1.748,1.107,3.265,2.556,5.136,3.468c1.846,0.876,3.778,1.557,5.648,2.397
	c-0.122,0.535-0.354,1.606-0.464,2.142C88.141,116.104,83.201,114.365,81.88,109.704z"/>
<path fill="#F4D016" d="M103.904,116.336c2.14-2.349,5.552-3.164,8.267-4.77c0.782,4.003-4.574,6.12-7.802,6.12L103.904,116.336z"/>
<path fill="#F7DA17" d="M114.653,111.834c3.179,1.107,6.261,2.786,9.747,2.251c2.885,0.584,5.075-1.788,7.825-2.02
	c0.332,1.582,0.148,3.188-0.171,4.758c-4.818,2.471-11.018,3.188-15.896,0.499C114.262,116.178,113.222,113.757,114.653,111.834z"/>
<path fill="#F0B90F" d="M134.205,113.026c2.826,1.107,5.418,2.688,8.096,4.1c0.049,0.414,0.173,1.254,0.232,1.667
	C139.439,117.808,133.754,117.333,134.205,113.026z"/>
<path fill="#F1CA12" d="M94.17,116.117c2.813-0.219,5.637-0.109,8.462,0.085C102.694,120.266,94.354,120.072,94.17,116.117z"/>
<path fill="#F3B616" d="M143.732,118.952c0.183-3.65,5.44-2.567,7.923-2.361C150.288,119.512,146.413,118.904,143.732,118.952z"/>
<path fill="#D56B1C" d="M175.343,116.981c0.332-0.11,1.005-0.329,1.346-0.45c-0.16,2.726-0.721,5.4-1.101,8.103
	c0.843,0.5,1.662,1.036,2.46,1.632c-1.027,1.008-2.113,1.947-3.092,3.006l0.991,0.767c-4.099,3.712-7.461,8.505-12.741,10.646
	c0.17,3.286-1.568,5.732-3.865,7.885c-0.109,2.397,1.357,4.866,0.696,7.178c-1.345,2.994-4.843,1.144-7.301,1.243
	c0.696,1.386,1.502,2.712,2.215,4.101c-3.118-0.866-4.207,2.324-6.435,3.518c-2.09-0.987-3.495-3.237-5.967-3.604
	c-0.465-2.066-0.195-4.196-0.439-6.277c-1.053-2.263-2.641-4.198-3.999-6.267c1.395,0.049,2.802,0.194,4.219,0.159
	c1.16-0.948,2.029-2.228,2.702-3.554c-2.814-0.692-5.577,0.025-8.145,1.183c-0.307-0.27-0.93-0.792-1.235-1.047
	c2.688-1.133,5.551-4.344,8.635-2.434c2.897,1.229,3.595-2.849,4.254-4.709c3.29-0.828,8.022-1.41,8.576-5.476
	c0.928,0.535,1.784,1.181,2.702,1.742c2.593-1.764-0.711-3.443-2.655-3.151c1.224-0.635,3.031-1.778,1.713-3.274
	c1.451-0.949,2.896-1.935,4.459-2.702c0.77,0.838,1.454,1.741,2.066,2.713c0.037,1.875-0.429,3.712-0.637,5.573
	c1.479-1.702,2.995-3.407,4.12-5.367c-0.33-2.446-1.735-5.06,0.063-7.313C169.84,117.93,173.119,118.186,175.343,116.981z"/>
<path fill="#B85C2E" d="M211.44,125.499c-0.196-5.147,5.357-8.092,9.807-8.651c1.384,3.857,3.242,7.521,5.432,10.989
	c-1.652,3.724-6.408,9.504-10.835,6.352c0.392,1.898,0.83,3.785,1.271,5.67l-0.745,0.279c-2.285-0.111-4.697-0.672-6.908,0.193
	c-0.111,1.791,0.05,3.577,0.098,5.366c-1.968,0.181-3.89,1.119-5.661-0.305c-2.982,6.57-9.223,10.441-13.684,15.867
	c-1.555,2.311-4.538,2.374-6.785,3.615c-1.079,1.534-1.712,3.322-2.621,4.979c0.294-2.774-1.735-4.771-2.959-7.022
	c1.96-3.727,0.271-7.787,0.941-11.694c2.482,0.988,4.6,2.655,6.886,4.003c-0.124-2.385-1.734-4.027-3.387-5.56
	c1.652-0.123,3.3-0.172,4.938-0.363c0.222-2.084-0.267-4.285,0.48-6.268c2.188-3.272,6.234-3.857,9.831-4.224
	c-0.027-2.213-0.307-4.403-0.44-6.607c1.481,2.36,2.494,4.941,3.595,7.482c2.737-1.473,1.662-4.404,1.259-6.826
	c1.297-0.025,2.604,0.098,3.911,0.074c0.135-1.58,0.111-3.174,0.135-4.757c4.037-1.68,4.782,2.788,6.238,5.365
	C213.446,130.732,211.44,128.2,211.44,125.499z"/>
<path fill="#F7DA13" d="M113.356,117.808c2.911,1.801,6.09,3.651,9.649,3.59c3.496,0.413,6.65-1.375,9.955-2.205
	c1.443,4.453-3.57,6.754-7.116,7.425c-4.206,1.545-8.975-0.183-12.057-3.214C112.758,121.775,113.54,119.634,113.356,117.808z"/>
<path fill="#EFAC12" d="M154.457,124.014c2.35-2.592,5.417-5.086,8.498-6.814c-1.749,3.456-4.61,6.169-8.106,7.849L154.457,124.014z
	"/>
<path fill="#F3CE13" d="M102.424,124.025c2.238-2.508,5.479-4.196,8.659-5.255c-0.111,0.852-0.331,2.543-0.44,3.395
	c-2.275,1.375-4.513,2.883-6.971,3.942C103.353,125.584,102.729,124.55,102.424,124.025z"/>
<path fill="#F1C812" d="M81.941,119.536c2.617,0.901,5.111,2.129,7.729,3.054c0.538,0.73,1.615,2.179,2.152,2.909
	c-0.99-0.181-2.984-0.546-3.974-0.74C85.732,123.199,83.494,121.703,81.941,119.536z"/>
<path fill="#F3C713" d="M135.245,119.829c2.788,1.266,5.931,2.725,7.644,5.366C139.784,125.73,134.133,123.601,135.245,119.829z"/>
<path fill="#C9662D" d="M186.213,126.752c2.371-1.776,3.376-5.038,6.142-6.291c1.503,2.043,2.738,4.271,4.305,6.267
	c1.381-1.095,2.593-2.399,4.011-3.444c2.382,0.815,3.888,2.885,5.33,4.806c-0.023,1.584,0,3.178-0.133,4.758
	c-1.31,0.026-2.618-0.097-3.913-0.074c0.403,2.422,1.479,5.355-1.259,6.826c-1.1-2.545-2.113-5.122-3.595-7.482
	c0.136,2.204,0.417,4.393,0.44,6.607c-3.596,0.366-7.643,0.948-9.831,4.224c-0.744,1.983-0.258,4.184-0.479,6.268
	c-1.639,0.191-3.286,0.24-4.938,0.363c1.652,1.534,3.264,3.175,3.388,5.56c-2.287-1.348-4.404-3.016-6.887-4.003
	c-0.671,3.906,1.017,7.972-0.94,11.694c1.223,2.251,3.252,4.245,2.958,7.022c-3.362,3.565-6.186,7.667-10.024,10.757
	c-3.622-2.301-2.521-7.569-5.537-10.538c-0.357,1.936-0.613,3.881-0.969,5.83c-1.37-0.827-2.654-1.765-4.033-2.558
	c-0.809,1.046-1.482,2.204-2.337,3.224c-0.486-0.062-1.455-0.172-1.943-0.23c0.548-2.458,1.552-5.136,0.572-7.617
	c-1.099-0.534-2.201-1.071-3.3-1.598c0.854-1.374,2.142-2.528,2.656-4.099c-0.248-0.477-0.71-1.447-0.943-1.936
	c-0.711-1.388-1.517-2.712-2.216-4.1c2.46-0.098,5.956,1.751,7.303-1.242c0.659-2.313-0.808-4.782-0.698-7.18
	c2.3-2.153,4.039-4.597,3.865-7.885c5.28-2.141,8.643-6.935,12.741-10.646c1.918,0.913,3.745,1.997,5.579,3.068
	c-0.343-2.581-1.591-5.915,1.453-7.364C184.05,126.071,185.139,126.4,186.213,126.752z"/>
<path fill="#F0C312" d="M93.901,124.22c2.396-0.279,4.806-0.62,7.227-0.414C102.583,127.836,92.213,128.857,93.901,124.22z"/>
<path fill="#EFBB10" d="M80.205,124.976c0.905,0.317,1.797,0.657,2.69,1.035c2.373,2.311,5.222,4.088,8.303,5.344
	c-0.342,0.353-1.026,1.059-1.381,1.411C85.574,131.877,82.394,128.53,80.205,124.976z"/>
<path fill="#F2C717" d="M102.082,131.146c1.223-3.444,5.687-4.807,8.792-6.279C111.4,128.919,105.408,131.207,102.082,131.146z"/>
<path fill="#F6D418" d="M143.744,125c3.01-0.269,6.03-0.243,9.047-0.39l-0.415,1.314C149.687,126.229,144.844,128.687,143.744,125z"
	/>
<path fill="#F7DA13" d="M112.403,126.473c3.852,0.024,7.557,3.857,11.836,2.665c3.179,0.289,5.859-2.616,8.892-1.911
	c-2.202,9.306-17.121,9.126-20.997,1.397C112.207,128.078,112.341,127.009,112.403,126.473z"/>
<path fill="#F5CB18" d="M135.407,126.4c2.296,2.08,6.725,3.626,6.148,7.252c-2.739-1.396-7.802-3.125-7.009-6.888L135.407,126.4z"/>
<path fill="#F4BE15" d="M155.104,130.366c1.148-0.962,2.408-1.789,3.767-2.47c1.32,1.497-0.489,2.641-1.714,3.275
	C156.646,130.975,155.618,130.574,155.104,130.366z"/>
<path fill="#F2CE10" d="M92.469,131.327c2.629-0.026,5.247-0.317,7.851-0.741c0.171,0.463,0.526,1.388,0.71,1.838
	C99,135.393,92.03,136.098,92.469,131.327z"/>
<path fill="#A24F2B" d="M224.343,138.738c-0.552-3.772,2.126-6.304,5.355-7.653c0.551,2.896-1.491,5.671-1.259,8.639
	c0.659-2.079,1.271-4.184,2.154-6.193c0.84,1.51,1.66,3.042,2.47,4.587c2.899-2.031,4.44-5.426,7.239-7.59
	c0.954,1.484,1.786,3.027,2.594,4.588c-0.083,0.608-0.259,1.824-0.331,2.434c-0.697,2.288-0.438,5.014-1.92,6.996
	c-4.451,0.379-8.926,1.107-13.071,2.85c-3.299,1.241-6.726,2.188-9.915,3.71c-21.288,9.102-39.915,24.291-52.741,43.517
	c-4.158,6.304-7.72,12.983-10.934,19.801c-0.524,1.119-1.013,2.262-1.504,3.394c-1.185-4.064,1.323-7.509,2.434-11.221
	c-1.661,0.608-3.534,1.412-4.048,3.287c-0.159,2.712,0.82,5.499-0.061,8.15c-1.026,3.14-2.667,6.06-4.539,8.776
	c-3.251-2.227,0.404-5.346,1.126-8.008c-1.527,1.218-4.597,2.13-3.911,4.599c0.611,3.333,1.626,8.31-2.446,9.843
	c-0.28-1.276,0.035-3.795-2.054-3.381c-1.64-0.328-2.458,1.51-3.498,2.409c-1.981,2.358-4.146,4.574-6.333,6.766
	c1.758,0.268,3.531,0.499,5.306,0.692c-6.406,0.827-12.876,0.511-19.32,0.485c-0.245-0.025-0.721-0.048-0.966-0.075
	c2.323-1.812,4.207-4.098,5.723-6.607c5.062-6.278,12.07-10.708,16.667-17.352c2.802-3.65,6.396-6.548,9.651-9.771
	c1.479-0.512,3.007-0.899,4.4-1.631c1.271-2.104,2.285-4.479,4.697-5.513c2.349-4.988,6.848-8.518,8.99-13.64
	c3.483,0.645,4.768-2.712,6.494-5.015c3.839-3.09,6.662-7.189,10.026-10.757c0.904-1.652,1.539-3.443,2.617-4.977
	c2.25-1.24,5.232-1.303,6.789-3.615c4.46-5.427,10.7-9.296,13.682-15.867c1.771,1.423,3.694,0.486,5.661,0.304
	c4.06,2.738,5.224-3.066,6.812-5.561l0.744-0.279C219.464,139.188,221.884,137.559,224.343,138.738z"/>
<path fill="#F2C114" d="M143.389,132.313c3.106,0.013,6.2-0.036,9.308,0.037C150.372,134.638,144.174,136.938,143.389,132.313z"/>
<path fill="#F9DB1E" d="M113.039,134.321c2.494,0.888,4.854,2.177,7.472,2.702c3.497,0.863,6.873-0.792,10.258-1.363
	C130.342,146.025,111.474,144.896,113.039,134.321z"/>
<path fill="#E46A00" d="M140.713,135.78c2.701,0.402,5.296,1.302,7.823,2.276c-0.659,1.86-1.356,5.938-4.254,4.708
	c-3.083-1.911-5.943,1.302-8.636,2.435c-1.381-1.046-3.18-1.813-3.79-3.566c-0.334-2.471,2.479-3.699,4.293-4.648
	c1.111,0.146,2.166,0.512,3.276,0.645C139.758,137.168,140.396,136.244,140.713,135.78z"/>
<path fill="#959595" d="M242.564,137.547c3.653,6.898-1.162,14.091-6.055,18.86c-26.255,26.176-52.594,52.276-78.826,78.475
	c-3.532,3.32-7.322,7.301-12.518,7.495c-8.184,0.207-16.363,0.171-24.557,0.122c-2.178,0.341-3.95-0.926-5.479-2.287
	c6.445,0.023,12.914,0.34,19.32-0.487c0.488-0.059,1.442-0.194,1.93-0.268c3.722-0.828,7.952-0.305,11.288-2.35
	c31.038-30.809,62.048-61.657,92.972-92.565C242.122,142.56,241.866,139.833,242.564,137.547z"/>
<path fill="#D5612B" d="M209.459,140.332c2.214-0.864,4.625-0.304,6.909-0.194c-1.588,2.495-2.751,8.299-6.811,5.561
	C209.51,143.909,209.349,142.121,209.459,140.332z"/>
<path fill="#F7D91C" d="M116.878,145.565c3.876-0.389,7.973,1.01,11.679-1.06c0.208,2.872,0.562,5.732,1.099,8.568
	c-1.82,1.728-4.413,0.899-6.65,0.96C120.535,151.552,118.554,148.631,116.878,145.565z"/>
<path fill="#9C7C14" d="M227.569,147.392c4.149-1.741,8.624-2.472,13.073-2.85c-30.925,30.908-61.936,61.757-92.973,92.565
	c0.342-4.381,0.954-8.795,2.675-12.873c1.434,0.074,2.901-0.098,3.782-1.361c24.054-23.973,48.106-47.957,72.231-71.857
	C227.511,150.104,228.048,148.826,227.569,147.392z"/>
<path fill="#D8AC1C" d="M217.653,151.1c3.191-1.521,6.616-2.469,9.916-3.71c0.479,1.437-0.062,2.713-1.211,3.626
	c-24.125,23.899-48.178,47.884-72.231,71.855c-0.881,1.266-2.349,1.438-3.782,1.363c0.785-2.117,1.458-4.271,2.129-6.425
	c0.489-1.134,0.98-2.273,1.502-3.396c1.821,0.366,3.352-0.56,4.514-1.873c19.062-19.153,38.228-38.208,57.437-57.219
	C216.846,154.143,218.703,152.827,217.653,151.1z"/>
<path fill="#F7C520" d="M164.913,194.616c12.825-19.227,31.452-34.412,52.741-43.517c1.049,1.728-0.808,3.043-1.725,4.225
	c-19.209,19.007-38.374,38.062-57.437,57.217c-1.162,1.314-2.691,2.239-4.513,1.874C157.196,207.6,160.755,200.92,164.913,194.616z"
	/>
<path fill="#F4BE15" d="M127.261,156.771c1.257-0.706,2.493-1.495,3.864-2.005c2.604,1.408,4.952,3.406,6.004,6.254
	c-0.805,0.415-2.433,1.255-3.239,1.668c-1.333-0.877-2.53-1.923-3.755-2.919C129.144,158.803,128.178,157.793,127.261,156.771z"/>
<path fill="#F1C318" d="M104.381,166.821c1.112-3.102,3.24-5.779,6.309-7.14c-0.868,1.739-1.969,3.358-2.714,5.145
	c0.844,1.123,1.713,2.228,2.617,3.312c-1.04,0.415-2.079,0.829-3.106,1.243c0.709,1.568,1.614,3.042,2.287,4.635
	C106.093,173.894,105.555,169.501,104.381,166.821z"/>
<path fill="#C5580F" d="M128.005,162.854c0.674-1.057,1.384-2.079,2.127-3.09c1.225,0.998,2.423,2.046,3.756,2.92
	c0.807-0.413,2.434-1.253,3.239-1.667c0.292,0.279,0.88,0.827,1.159,1.095c-0.563,0.583-1.675,1.752-2.237,2.324
	c0.405,1.643,0.943,3.297,1.86,4.735c0.942,0.376,1.884,0.752,2.826,1.119c1.223,1.546,2.898,2.469,4.684,3.223
	c0.243,0.705,0.479,1.426,0.696,2.155c1.308,0.438,2.629,0.839,3.975,1.19c-1.357,0.887-2.739,1.767-4.244,2.398
	c-1.148-2.688-4.306-3.224-5.615-5.633c-0.646-1.096-1.575-1.899-2.775-2.422c-2.008,1.447-3.828,3.14-5.627,4.817
	c1.272,3.056,4.295,0.608,6.237-0.267c0.417,3.333,1.432,6.56,2.116,9.845c-0.65,0.024-1.921,0.084-2.558,0.122
	c-0.318-0.523-0.942-1.582-1.249-2.117c-1.258,1.023-2.36,2.228-3.667,3.202c-1.27-0.098-2.531-0.354-3.794-0.464
	c0.393,3.519-3.152,4.903-6.126,4.1c-0.354-0.682-1.063-2.055-1.418-2.738c-0.44,0.098-1.333,0.305-1.785,0.402
	c-0.796,0.074-2.385,0.222-3.193,0.278c-0.538-1.653-0.941-3.382-1.761-4.929c-1.663-0.898-3.509-1.436-5.161-2.349
	c-0.844-1.666-1.431-3.541-1.431-5.401c0.428-0.426,1.297-1.265,1.724-1.692l0.697-0.597c0.134,4.468,5.54,5.147,9.013,5.343
	c-0.283-0.668-0.869-2.007-1.15-2.677c0.379-0.45,1.15-1.362,1.528-1.812c0.612,0.558,1.199,1.154,1.761,1.764
	c-0.513,1.156-0.966,2.348-1.333,3.564c3.363,0.343,6.763,0.232,10.089-0.425c-0.528-1.058-1.148-2.068-1.762-3.092
	c1.652-1.849,0.037-3.966-0.331-5.95c1.407-0.9,2.911-1.654,4.244-2.653C132.545,164.925,129.401,164.523,128.005,162.854z"/>
<path fill="#C66020" d="M148.512,164.608c2.226-1.191,3.316-4.383,6.435-3.517c0.231,0.484,0.695,1.459,0.943,1.936
	c-0.515,1.569-1.8,2.725-2.657,4.099c1.103,0.524,2.202,1.06,3.303,1.597c0.978,2.48-0.023,5.159-0.575,7.616
	c-1.932,1.51-3.986,3.055-5.112,5.27c-0.278,2.155,0.171,4.32,0.293,6.462c-2.055-2.419-3.888-5.245-6.908-6.56
	c-0.477,2.142-0.623,4.356-1.296,6.465c-0.6,0.511-1.237,0.96-1.932,1.347c-0.332-1.24-0.577-2.48-0.818-3.724
	c-0.688-3.284-1.703-6.511-2.117-9.845c0.733-0.692,1.454-1.411,2.165-2.129c1.31,2.409,4.464,2.945,5.613,5.635
	c1.504-0.633,2.886-1.509,4.245-2.399c-1.346-0.351-2.667-0.751-3.976-1.189c-0.219-0.731-0.452-1.449-0.695-2.156
	c-1.785-0.752-3.461-1.678-4.684-3.224c1.8-0.473,3.621-0.816,5.442-1.191c-2.336-2.094-3.189-5.109-3.634-8.091
	C145.016,161.372,146.422,163.622,148.512,164.608z"/>
<path fill="#F3B113" d="M136.051,164.438c0.563-0.573,1.676-1.743,2.239-2.323c2.935,0.925,3.301,4.002,2.885,6.643
	c-0.819,0.109-2.445,0.304-3.265,0.414C136.994,167.734,136.457,166.081,136.051,164.438z"/>
<path fill="#D76D1A" d="M101.824,164.146c0.319,0.913,0.662,1.813,1.028,2.713c0.38-0.016,1.149-0.024,1.529-0.038
	c1.174,2.68,1.712,7.072,5.393,7.192c-0.427,0.427-1.296,1.267-1.724,1.693c0,1.859,0.587,3.734,1.43,5.401
	c1.652,0.912,3.498,1.445,5.161,2.349c0.82,1.546,1.223,3.272,1.762,4.93c-2.74,1.205-3.682,3.76-3.828,6.546
	c-1.956,0.415-4.011,0.475-5.943,0.013c-0.636-0.828-1.223-1.691-1.75-2.592c1.542,0.012,3.082,0.158,4.623,0.121
	c0.501-0.937,0.904-1.923,1.235-2.931c-2.922-1.182-6.285,3.284-8.962,0.048c0.305-1.265,0.708-2.496,1.014-3.746
	c-0.869-0.318-1.748-0.549-2.654-0.72c-2.763,2.068-2.287,7.897-6.91,7.228c1.48-5.051,4.464-9.407,7.02-13.945
	c0.171-3.152-1.553-6.024-2.018-9.09c0.318-0.487,0.966-1.462,1.296-1.947C100.285,166.288,101.054,165.217,101.824,164.146z"/>
<path fill="#B55A2E" d="M165.244,170.071c3.019,2.969,1.916,8.239,5.537,10.538c-1.726,2.302-3.01,5.657-6.493,5.014
	c-2.141,5.123-6.643,8.651-8.991,13.641c-2.411,1.035-3.427,3.409-4.697,5.512c-1.395,0.732-2.922,1.119-4.399,1.633
	c-0.052-0.526-0.162-1.571-0.224-2.095c-4.572,4.638-9.979,8.441-13.989,13.612c-3.521,4.164-7.823,7.583-11.311,11.77
	c-0.88,1.058-0.513,2.567-0.795,3.831c-1.516,2.51-3.399,4.794-5.722,6.607c-8.537-0.57-16.961-2.42-25.155-4.818
	c3.18-3.589,6.03-7.776,10.517-9.843c3.021-1.35,4.5-4.466,6.102-7.145c1.859-3.358,5.112-5.597,7.436-8.602
	c1.186-1.922,3.668-1.934,5.576-2.654c2.409,0.135,5.002,2.277,7.276,1.086c2.531-3.639,4.365-7.739,6.678-11.535
	c-0.025-1.813-0.43-3.588-0.637-5.378c1.919,0.79,3.791,1.739,5.732,2.508c-0.193-2.678-0.477-5.366-0.062-8.032
	c0.638-0.037,1.908-0.098,2.558-0.125c0.243,1.243,0.487,2.484,0.82,3.726c0.694-0.388,1.333-0.837,1.931-1.348
	c0.673-2.106,0.82-4.322,1.297-6.464c3.022,1.313,4.855,4.137,6.907,6.561c-0.123-2.143-0.574-4.309-0.292-6.465
	c1.126-2.213,3.182-3.76,5.112-5.268c0.489,0.062,1.456,0.172,1.943,0.229c0.857-1.021,1.53-2.178,2.338-3.224
	c1.38,0.79,2.665,1.73,4.034,2.558C164.63,173.955,164.888,172.007,165.244,170.071z"/>
<path fill="#EF9311" d="M131.834,176.023c1.799-1.681,3.618-3.372,5.627-4.82c1.197,0.525,2.126,1.327,2.776,2.422
	c-0.709,0.718-1.432,1.437-2.166,2.129C136.128,176.632,133.106,179.077,131.834,176.023z"/>
<path fill="#EFAF15" d="M110.471,173.418c2.64,0.815,5.197,1.898,7.862,2.663c0.281,0.671,0.869,2.007,1.151,2.678
	C116.01,178.566,110.604,177.884,110.471,173.418z"/>
<path fill="#E99114" d="M121.623,176.035c2.311,0.573,4.696,0.644,6.994,0.048c0.612,1.023,1.235,2.034,1.762,3.091
	c-3.326,0.658-6.727,0.768-10.089,0.426C120.657,178.382,121.109,177.191,121.623,176.035z"/>
<path fill="#C26128" d="M132.716,186.804c1.306-0.973,2.409-2.177,3.665-3.2c0.308,0.534,0.932,1.594,1.25,2.117
	c-0.415,2.663-0.134,5.352,0.062,8.032c-1.944-0.769-3.813-1.716-5.731-2.508c0.207,1.79,0.609,3.564,0.636,5.378
	c-2.313,3.796-4.146,7.896-6.678,11.535c-2.274,1.191-4.867-0.949-7.275-1.086c-0.098-1.058,0.477-2.531-0.82-3.054
	c-2.482-1.702-5.356-2.703-8.157-3.772c1.431-0.73,3.499-0.864,4.109-2.593c1.674-3.346,3.741-6.449,5.821-9.554
	c0.453-0.097,1.345-0.303,1.785-0.4c0.354,0.683,1.064,2.054,1.418,2.737c2.974,0.803,6.517-0.583,6.126-4.1
	C130.183,186.452,131.444,186.706,132.716,186.804z"/>
<path fill="#D1702D" d="M100.137,185.124c0.906,0.17,1.785,0.402,2.654,0.72c-0.306,1.251-0.709,2.481-1.014,3.748
	c2.678,3.235,6.04-1.23,8.962-0.05c-0.331,1.008-0.733,1.996-1.235,2.932c-1.542,0.035-3.082-0.109-4.623-0.123
	c0.527,0.901,1.113,1.765,1.75,2.592c1.932,0.464,3.987,0.402,5.943-0.013c0.146-2.785,1.088-5.343,3.828-6.546
	c0.806-0.062,2.396-0.206,3.191-0.278c-2.079,3.104-4.146,6.206-5.821,9.553c-0.611,1.728-2.678,1.862-4.108,2.594
	c2.8,1.068,5.674,2.067,8.157,3.771c1.297,0.522,0.722,1.998,0.819,3.054c-1.908,0.721-4.39,0.732-5.576,2.654
	c-2.324,3.007-5.577,5.247-7.436,8.602c-1.603,2.678-3.082,5.795-6.103,7.144c-4.487,2.068-7.336,6.255-10.517,9.844
	c-11.298-3.346-22.122-8.357-31.904-14.879c5.748-3.141,9.282-9.018,15.078-12.108c7.63-4.501,12.57-12.956,21.044-15.978
	C97.85,193.023,97.374,187.192,100.137,185.124z"/>
<path fill="#D5612B" d="M131.993,217.93c4.01-5.171,9.416-8.979,13.988-13.614c0.062,0.522,0.171,1.568,0.224,2.093
	c-3.255,3.224-6.85,6.121-9.651,9.771c-4.597,6.644-11.605,11.073-16.667,17.352c0.282-1.265-0.085-2.773,0.795-3.83
	C124.167,225.514,128.472,222.093,131.993,217.93z"/>
<path fill="#8C4427" d="M150.86,209.877c0.514-1.875,2.386-2.679,4.048-3.287c-1.11,3.713-3.619,7.156-2.434,11.221
	c-0.671,2.155-1.345,4.308-2.128,6.424c-1.722,4.078-2.333,8.492-2.674,12.873c-3.337,2.045-7.568,1.521-11.288,2.35
	c0.688-1.691,1.262-3.443,2.106-5.062c0.831-0.414,1.675-0.803,2.544-1.156c4.07-1.533,3.057-6.509,2.445-9.844
	c-0.686-2.47,2.384-3.382,3.911-4.599c-0.723,2.663-4.378,5.78-1.125,8.007c1.871-2.712,3.512-5.636,4.539-8.775
	C151.68,215.377,150.701,212.59,150.86,209.877z"/>
<path fill="#C9582A" d="M135.477,232.267c1.042-0.9,1.86-2.737,3.498-2.407c2.09-0.414,1.772,2.104,2.055,3.38
	c-0.868,0.354-1.712,0.742-2.544,1.156c-0.843,1.619-1.418,3.373-2.104,5.062c-0.488,0.073-1.442,0.209-1.932,0.268
	c-1.773-0.194-3.545-0.426-5.308-0.691C131.334,236.84,133.496,234.627,135.477,232.267z"/>
</svg>
